#!OML:ASF F:\VICON\USERDATA\INSTALL\rory3\rory3.ASF
:FULLY-SPECIFIED
:DEGREES
93
root -13.5905 18.5318 1.11399 1.91505 10.8351 -2.54363
lowerback 5.76615 2.40608 0.761618
upperback 1.73909 3.22451 -1.40199
thorax -1.31515 1.61367 -2.08322
lowerneck -11.1556 2.14199 -5.25119
upperneck 24.9514 2.508 6.93482
head 9.51454 1.48177 3.59936
rclavicle -2.51463e-014 2.06736e-014
rhumerus -33.8 0.223092 -82.8191
rradius 23.049
rwrist 19.835
rhand -27.0875 3.54374
rfingers 7.12502
rthumb -0.504585 -26.4354
lclavicle -2.51463e-014 2.06736e-014
lhumerus -37.5294 26.2666 66.6474
lradius 19.6989
lwrist -9.13535
lhand -23.5181 24.2289
lfingers 7.12502
lthumb 2.94273 54.1884
rfemur 3.37561 10.5326 29.6137
rtibia 16.3908
rfoot -20.5198 -17.6458
rtoes -1.46925
lfemur -28.3472 12.1358 -19.2852
ltibia 25.5866
lfoot -16.6082 30.6393
ltoes 13.2522
94
root -13.5624 18.523 1.16674 1.98024 11.1392 -2.75431
lowerback 5.66435 2.43853 0.73041
upperback 1.75742 3.2665 -1.38127
thorax -1.24094 1.63542 -2.04152
lowerneck -11.2005 2.16993 -5.27239
upperneck 24.9341 2.56102 6.91651
head 9.5133 1.50353 3.60262
rclavicle 1.10325e-014 7.95139e-015
rhumerus -33.5903 0.439068 -82.9023
rradius 23.1127
rwrist 19.8626
rhand -27.1823 3.33782
rfingers 7.12502
rthumb -0.596186 -26.6411
lclavicle 1.10325e-014 7.95139e-015
lhumerus -37.5971 26.7338 66.383
lradius 19.6796
lwrist -9.43956
lhand -23.4914 24.1812
lfingers 7.12502
lthumb 2.96859 54.1403
rfemur 3.48339 10.422 29.8183
rtibia 16.3544
rfoot -20.7163 -17.643
rtoes -1.10666
lfemur -28.4784 12.2896 -19.316
ltibia 25.9071
lfoot -16.0844 29.9577
ltoes 14.822
95
root -13.5271 18.5228 1.22336 2.07915 11.5001 -2.69319
lowerback 5.60154 2.47918 0.500952
upperback 1.70942 3.30666 -1.44189
thorax -1.26319 1.65502 -1.97652
lowerneck -11.0507 2.21725 -5.31469
upperneck 24.8921 2.62757 6.94453
head 9.46358 1.53352 3.62137
rclavicle 2.85256e-014 5.56597e-015
rhumerus -33.6077 0.396996 -82.8923
rradius 23.2692
rwrist 20.0647
rhand -27.0661 3.1425
rfingers 7.12502
rthumb -0.483924 -26.8367
lclavicle 2.85256e-014 5.56597e-015
lhumerus -37.7084 26.5342 66.4589
lradius 19.8015
lwrist -9.04076
lhand -23.2109 24.7103
lfingers 7.12502
lthumb 3.23939 54.6654
rfemur 3.68534 10.096 29.6719
rtibia 16.2557
rfoot -20.9514 -17.4692
rtoes -0.901092
lfemur -28.6903 12.22 -19.5606
ltibia 26.2235
lfoot -15.2847 29.7464
ltoes 15.4382
96
root -13.4918 18.5268 1.27792 2.11709 11.8024 -2.75205
lowerback 5.62966 2.52128 0.432787
upperback 1.67376 3.35743 -1.50982
thorax -1.31342 1.67993 -2.01396
lowerneck -10.9487 2.27561 -5.33767
upperneck 24.826 2.70733 6.97362
head 9.41389 1.57199 3.63866
rclavicle 1.28216e-014 2.38542e-015
rhumerus -33.5596 0.484026 -83.0028
rradius 23.4047
rwrist 19.9858
rhand -27.1318 3.20523
rfingers 7.12502
rthumb -0.547353 -26.7738
lclavicle 1.28216e-014 2.38542e-015
lhumerus -37.7844 26.1579 66.5875
lradius 19.9754
lwrist -8.46128
lhand -23.0997 24.6756
lfingers 7.12502
lthumb 3.34681 54.6291
rfemur 3.8967 9.94076 29.7007
rtibia 16.1765
rfoot -20.8975 -17.5489
rtoes -1.32058
lfemur -28.7976 11.8784 -19.4773
ltibia 26.5108
lfoot -15.4963 29.7162
ltoes 16.6793
97
root -13.4588 18.5257 1.3295 2.17575 12.1238 -2.96394
lowerback 5.6541 2.57686 0.517376
upperback 1.68443 3.43539 -1.56502
thorax -1.30471 1.71919 -2.12366
lowerneck -11.1416 2.28156 -5.38052
upperneck 24.8575 2.71027 7.07412
head 9.4586 1.58284 3.68761
rclavicle 5.08889e-014 -2.70347e-014
rhumerus -33.2827 0.479214 -83.086
rradius 23.401
rwrist 19.9687
rhand -27.4602 3.51526
rfingers 7.12502
rthumb -0.864582 -26.4627
lclavicle 5.08889e-014 -2.70347e-014
lhumerus -37.6557 25.7566 66.7662
lradius 20.1343
lwrist -8.04592
lhand -23.3663 24.278
lfingers 7.12502
lthumb 3.08937 54.2354
rfemur 4.01947 9.91836 29.9245
rtibia 16.0843
rfoot -20.6605 -17.794
rtoes -1.69562
lfemur -28.9727 11.5719 -19.2543
ltibia 26.7684
lfoot -15.4017 30.0026
ltoes 16.3308
98
root -13.4283 18.5242 1.38326 2.1992 12.4411 -3.01306
lowerback 5.73401 2.66267 0.36844
upperback 1.72831 3.54016 -1.64325
thorax -1.30391 1.77201 -2.1304
lowerneck -11.2642 2.3038 -5.3211
upperneck 24.7995 2.73209 7.09653
head 9.46063 1.60314 3.68856
rclavicle -9.44227e-015 -8.74653e-015
rhumerus -32.9538 0.527477 -83.1668
rradius 23.4317
rwrist 19.8359
rhand -27.5733 3.23068
rfingers 7.12502
rthumb -0.973841 -26.7468
lclavicle -9.44227e-015 -8.74653e-015
lhumerus -37.5024 25.5287 66.8669
lradius 20.2488
lwrist -7.97729
lhand -23.5918 24.2176
lfingers 7.12502
lthumb 2.87159 54.178
rfemur 4.22437 9.80417 29.9922
rtibia 16.0544
rfoot -20.415 -18.0376
rtoes -2.6256
lfemur -29.0087 11.3315 -19.2029
ltibia 27.0232
lfoot -15.3831 30.1418
ltoes 16.4876
